<?xml version="1.0" encoding="utf-8"?>
<!-- Generator: Adobe Illustrator 26.5.0, SVG Export Plug-In . SVG Version: 6.00 Build 0)  -->
<svg version="1.1" id="Laag_1" xmlns="http://www.w3.org/2000/svg" xmlns:xlink="http://www.w3.org/1999/xlink" x="0px" y="0px"
	 viewBox="0 0 159.34 91.61" style="enable-background:new 0 0 159.34 91.61;" xml:space="preserve">
<style type="text/css">
	.st0{fill:currentColor;}
</style>
<g>
	<g>
		<path d="M14.55,12.96c0,0.07,0.14,0.36,0.14,0.36c0.07,0.36,0.14,0.79,0.14,1.15c0,0.14,0.07,0.29,0.07,0.5l0.43,1.51
			c0,0.07,0.07,0.22,0.07,0.36c0,0.29,0,0.58,0.07,0.79l0.36,1.66c0.22,0.43,0.5,1.37,0.58,1.73c0.07,0.86,0.14,1.66,0.43,2.02
			c0.36-0.36,0.65-0.72,0.86-1.15l0.58-0.94c0.14-0.14,0.14-0.29,0.22-0.43c0-0.07,0.14-0.29,0.14-0.36l0.5-0.5l0.22-0.07V19.3
			c0-0.14,0.36-0.43,0.36-0.43c0-0.07,0-0.22,0.07-0.29c0.43-0.5,0.86-1.15,1.08-1.51l0.58-0.58c0.22-0.36,0.58-0.72,0.79-1.08
			l0.36-0.14l0.5-0.36c0.07-0.5,0.43-0.94,0.86-1.3c0.36-0.29,0.72-0.65,0.79-0.94c0.5-0.36,0.86-0.72,1.22-1.01
			c0.72-0.65,1.58-1.22,3.17-1.22c1.87,0.14,4.32,2.74,5.04,6.77c0.36,0.43,0.36,1.51,0.36,2.3v2.66c0,0.36-0.07,1.58-0.29,1.8v1.37
			c-0.14,0.22-0.14,0.36-0.14,0.43v0.5c0,0.07-0.07,0.22-0.07,0.29c-0.07,0.14-0.07,0.22-0.07,0.22c0,0.07-0.07,0.36-0.07,0.36
			c-0.07,1.01-0.36,2.23-0.43,3.31c0,0.5-0.14,1.58-0.14,1.58l-0.22,0.14c0,0-0.07,0.72-0.07,0.94v0.5c0,0.14,0,0.29-0.14,0.5
			c-0.07,0.22-0.14,0.43-0.14,0.65L32.83,35v1.37c0,0.07-0.07,0.36-0.14,0.5c0,0.07-0.07,0.29-0.14,0.43
			c-0.07,0.14-0.07,0.36-0.07,0.36l-0.22,1.73c-0.14,0.07-0.22,0.36-0.22,0.36c-0.14,0.36-0.14,0.72-0.14,1.08
			c0,0.29-0.07,0.58-0.14,0.86c-0.14,1.08-0.43,2.16-0.58,3.24c0,0.07-0.07,0.36-0.07,0.65c-0.07,0.29-0.07,0.58-0.07,0.65
			l-0.07,0.22v1.22c0,0.07-0.07,0.65-0.22,0.72c-0.07,0.14-0.14,0.65-0.14,1.08l-0.07,0.94c0.22-0.22,0.5-0.5,0.58-0.86v-0.29
			c0-0.22,0.07-0.5,0.07-0.58c0-0.07,0.14-0.43,0.14-0.43c0-0.07,0.29-0.86,0.43-1.3c0.22-0.58,0.36-1.08,0.43-1.51
			c0.07-0.5,0.14-0.79,0.29-1.15l0.22-0.72c0-0.22,0.14-0.29,0.22-0.36c0.14-0.14,0.22-0.29,0.22-0.43l0.29-1.15
			c0.07-0.22,0.14-0.43,0.14-0.72c0-0.43,0-0.72,0.22-0.94l0.22-0.14c0,0,0-0.14,0.07-0.29c0-0.07,0.07-0.29,0.07-0.36l0.43-0.86
			c0.14-0.29,0.29-0.72,0.36-1.15c0-0.14,0.07-0.29,0.14-0.58c0-0.07,0.07-0.14,0.07-0.22l0.58-1.44c0.07-0.29,0.14-0.5,0.29-0.79
			l1.01-2.09c0-0.14,0.07-0.43,0.07-0.5c0.07-0.72,0.29-1.15,0.79-1.66c0.07-0.5,0.14-0.65,0.29-0.79l1.8-3.82l0.14-0.43l1.66-2.16
			l0.58-0.5c0-0.07,0.36-0.43,0.43-0.43c0.43-0.58,0.72-0.94,1.51-0.94h0.43c2.16,0.29,2.52,3.02,2.95,3.17
			c0.07,0.22,0.22,0.36,0.22,0.58c0,0.29,0.07,0.65,0.07,0.86v4.75c0,0.22-0.07,0.5-0.07,0.58l-0.07,0.22
			c-0.22,0.94-0.22,2.3-0.29,3.17c0,0.43,0,1.51-0.07,1.94c-0.22,0.43-0.22,0.94-0.22,1.51v1.22c-0.43,1.01-0.79,2.3-0.86,3.53v0.43
			c0,0.29-0.07,0.58-0.07,0.72v1.01l-0.22,2.02c-0.07,0.14-0.14,0.22-0.14,0.36c0,0.07,0.14,0.22,0.22,0.29v1.3
			c-0.07,0.07-0.07,0.22-0.07,0.36v0.36c-0.14,0.29-0.14,0.65-0.14,0.86c0,0.36,0.07,0.72,0.14,1.08c0.07,0.29,0.14,0.58,0.14,0.94
			c0,0.14,0.07,0.58,0.07,1.01v1.3c0.07,0.79,0.29,1.51,0.36,2.3c0,0.22,0.43,0.72,0.79,0.72c0.43,0,1.01-0.94,1.08-1.08
			c0.07-0.14,0.22-0.43,0.58-0.43c0.22,0,0.5,0.36,0.5,0.65c-0.58,1.94-1.37,3.17-2.95,3.17c-0.36,0-0.79-0.07-1.15-0.22
			c-0.14,0-0.36-0.14-0.5-0.22c-0.14-0.07-0.29-0.14-0.5-0.14l-0.43-0.07c-0.65-0.65-1.3-1.8-1.44-2.74
			c-0.07-0.22-0.29-0.43-0.29-0.79c0-0.14,0.07-0.29,0.07-0.36c0-0.07,0-0.22-0.14-0.22c0-0.43,0.07-0.65,0.07-0.79
			c0-0.43-0.14-0.94-0.29-1.44c-0.14-0.36-0.22-0.79-0.22-1.08v-0.5c0-0.58-0.07-1.58-0.07-2.16l0.22-0.29
			c-0.07-0.07-0.14-0.07-0.22-0.07v-2.3l-0.22-0.79v-0.43l0.14-0.29v-1.44c0-0.22,0-0.65,0.14-1.08c0-0.29,0.07-0.79,0.14-1.01
			c0.07-0.22,0.14-0.36,0.14-0.58c0.14-0.94,0.22-2.02,0.22-3.1c0-0.29-0.07-0.58-0.07-0.86l0.07-1.01
			c0.07-0.14,0.14-0.29,0.14-0.43c0-0.07-0.07-0.36-0.14-1.58c0.14-0.14,0.14-0.29,0.14-0.43c0-0.07-0.07-0.14-0.07-0.29v-0.36
			c0.22-2.23,0.36-4.61,0.43-6.91c0-0.65,0.07-1.44,0.07-2.16c0.07-0.07,0.14-0.14,0.14-0.22c0-0.43-0.14-0.72-0.36-0.72
			c-0.5,0.36-0.72,0.79-0.72,0.79l-1.08,1.73c0,0-0.14,0.22-0.36,0.43v0.36c0,0.14-0.94,1.8-1.3,2.23c0,0.07-0.07,0.29-0.07,0.36
			c0,0.22-0.07,0.43-0.07,0.5c-0.43,0.36-0.43,0.43-0.43,0.43c0,0.14-0.07,0.36-0.14,0.43c-0.22,0.86-0.72,2.45-1.3,3.31
			c0,0.43-0.36,1.15-0.5,1.37c0,0.07-0.07,0.22-0.07,0.22c-0.14,0.36-0.22,0.58-0.22,0.58c-0.07,0.07-0.14,0.14-0.14,0.22
			s-0.07,0.22-0.07,0.5c-0.07,0.36-0.22,0.65-0.36,0.94c-0.14,0.22-0.29,0.65-0.36,0.86v0.5l-0.29,0.36
			c-0.07,0.07-0.22,0.07-0.29,0.22c0,0.07-0.07,0.29-0.07,0.5c-0.29,1.01-0.65,2.02-1.01,2.95c-0.14,0.29-0.22,0.58-0.29,0.86
			c-0.07,0.22-0.14,0.43-0.14,0.65l-0.14,0.65c0-0.07-0.14,0.14-0.22,0.29l-0.14,0.29c0,0.07-0.07,0.36-0.07,0.58
			c-0.07,0.29-0.07,0.5-0.07,0.5c-0.07,0.43-0.22,0.86-0.36,1.3c-0.14,0.36-0.29,0.79-0.36,1.15c-0.14,0.79-0.43,1.66-0.58,2.45
			l-0.29,0.43c-0.07,0.43-0.29,1.15-0.43,1.58c-0.22,0.65-0.43,1.3-0.43,1.94c0,0.07,0.07,0.14,0.07,0.22l-0.14,0.36
			c-0.14,0.5-0.29,0.94-0.58,1.44c0,0.07-0.07,0.22-0.07,0.29c-0.07,0.22-0.29,0.58-0.43,0.58c-0.14,0.07-0.22,0.07-0.29,0.07
			c-0.29,0.07-0.58,0.07-0.72,0.07c-1.3,0-1.94-1.01-2.16-2.02c0-0.14,0-0.29,0.07-0.43c0.07-0.22,0.14-0.5,0.14-0.72
			c0-0.07,0-0.22-0.14-0.29v-1.08c0.07-0.07,0.07-0.14,0.07-0.22c0-0.14-0.07-0.29-0.07-0.5c0-0.07-0.07-0.36-0.14-0.65v-3.82
			c0-0.5,0.07-1.87,0.22-2.16v-2.09c0.22-0.22,0.22-0.79,0.22-1.15v-1.01c0-0.07,0-0.5,0.07-0.79c0-0.22,0.07-0.65,0.07-0.79
			c0.14-0.14,0.14-0.22,0.14-0.43c0-0.07,0-0.29,0.07-0.36v-0.29c0.07-0.65,0.14-1.08,0.36-1.58c0-0.36,0.07-1.22,0.14-1.8
			c0.07-0.72,0.14-1.44,0.14-1.73v-0.43c0-0.5,0.14-1.66,0.22-1.94c0-0.58,0.07-1.73,0.29-2.23l0.29-1.15
			c0-0.14,0.07-0.36,0.07-0.65c0.07-0.79,0.14-2.16,0.36-2.52c0-0.14,0-0.5,0.07-0.72c0-0.29,0.07-0.72,0.07-0.86s0-0.5,0.07-0.72
			c0.07-0.43,0.22-1.01,0.22-1.37v-3.67c0.14-0.22,0.14-0.5,0.14-0.72c0-0.14-0.07-0.58-0.07-1.01c-0.07-0.29-0.07-0.72-0.07-1.15
			v-1.22c0-0.65-0.07-1.37-0.29-2.02c-0.29-0.29-0.43-0.36-0.58-0.36c-0.36,0-0.65,0.14-0.79,0.29l-0.65,0.43
			c-0.22,0.14-0.29,0.07-0.5,0.5c0,0-0.36,0.43-0.5,0.58l-0.36,0.14c-0.14,0.07-0.22,0.07-0.29,0.29l-1.22,1.15l-0.79,1.15
			l-1.08,1.01c-0.22,0.22-0.36,0.43-0.43,0.65l-0.5,0.86c-0.14,0.36-0.43,0.86-0.86,1.08c-0.22,0.36-0.58,0.86-0.72,1.22
			c0,0-0.14,0.22-0.22,0.29c-0.07,0.07-0.14,0.14-0.22,0.14l-0.22,0.5c-0.07,0.29-0.22,0.72-0.36,0.86l-0.22,0.29
			c0,0.07-0.07,0.14-0.07,0.22c-0.07,0.14-0.07,0.29-0.07,0.29s-0.29,0.22-0.36,0.36c0,0.14-0.22,0.22-0.43,0.36
			c0.07,0.65,0.07,1.08,0.07,1.51v0.36c0,0.14,0,0.22,0.07,0.29c0.07,0.65,0.14,1.3,0.14,2.02l0.14,1.94c0,0.07,0.07,0.22,0.07,0.29
			c0.07,0.29,0.22,0.79,0.22,1.08v0.79c0,0.36,0.07,1.51,0.36,1.8v0.5c0,0.58,0,1.01,0.07,1.51c0,0.5,0.07,1.08,0.07,1.58v2.66
			c0,1.15,0.07,2.3,0.07,3.38v1.22c-0.07,0.14-0.14,1.51-0.22,2.02c-0.22,0.79-0.29,1.58-0.29,2.3c0,0.07,0.07,0.14,0.07,0.36
			c-0.22,0.58-0.5,1.58-0.5,2.16c-0.29,0.65-0.36,1.08-0.43,1.73v0.43c-0.22,0.14-0.29,0.29-0.29,0.5
			c-0.14,0.22-0.36,1.15-0.36,1.37c-0.07,0.07-0.14,0.36-0.22,0.58c-0.07,0.22-0.29,0.65-0.29,0.58l-0.72,1.58
			c0,0.07-0.07,0.14-0.07,0.22c-0.14,0.14-0.14,0.29-0.14,0.29l-0.79,0.86c-0.58,0.86-1.73,1.01-2.16,1.01
			c-0.36,0-0.94-0.36-1.22-0.65c-0.36-0.58-0.43-0.86-0.65-1.51c-0.07-0.36-0.29-1.15-0.43-1.44c-0.22-0.22-0.22-1.01-0.22-1.15
			c0-0.07,0-0.14,0.07-0.29c0-0.14,0-0.43-0.07-0.5c-0.07-0.14-0.14-0.36-0.14-0.58c0-0.14,0.07-0.22,0.07-0.5
			c0-0.07,0-0.22-0.07-0.36c0,0-0.07-0.07-0.07-0.36c0-0.86,0-2.02,0.14-3.24v-0.5c0-0.22,0.07-0.36,0.07-0.58l-0.07-0.22
			c0-0.07,0-0.22,0.07-0.22c0-0.07,0.07-0.22,0.07-0.29l0.22-1.51c0.14-0.65,0.22-1.22,0.22-1.94c0-0.07-0.07-0.14-0.07-0.29
			l0.29-1.37c0.14-0.43,0.22-1.15,0.22-1.51l-0.07-0.22c0-0.07,0.07-0.29,0.22-0.65l0.36-1.8c0.14-0.43,0.29-0.94,0.36-1.37
			l0.43-1.37c0.07-0.65,0.22-1.22,0.43-1.87l0.29-0.58l-0.14-1.66c0-0.29-0.07-0.94-0.14-1.22c-0.07-0.22-0.07-0.58-0.07-0.86
			c-0.07-0.14-0.14-0.5-0.14-0.94c-0.07-0.65-0.07-1.3-0.36-1.58v-1.08c-0.14-0.36-0.29-1.01-0.29-1.3c0-0.14-0.07-0.43-0.14-0.72
			c-0.07-0.22-0.07-0.65-0.07-0.79c-0.14-0.43-0.22-1.15-0.29-1.66c0-0.29,0-0.58-0.07-0.72l-0.14-0.22
			c-0.14-0.43-0.14-0.65-0.14-0.94c-0.07-0.43-0.14-1.01-0.22-1.08c-0.14-0.36-0.5-1.94-0.5-2.38v-0.94c0-0.07-0.07-0.14-0.07-0.29
			c-0.07-0.5-0.22-1.37-0.36-1.51l-0.22-1.58c-0.07-0.07-0.29-0.5-0.29-0.58c-0.07-0.86-0.43-2.23-0.72-3.1
			C8.06,8.71,7.78,8.28,7.49,7.85C7.42,7.71,7.27,7.42,7.27,7.13L7.06,6.48L6.77,6.05C6.7,5.9,6.26,5.33,6.12,5.26H5.18L4.46,5.83
			L4.1,5.98C3.89,6.05,3.67,6.41,3.53,6.55L3.1,7.13l-0.5,0.5c0,0.07-0.07,0.29-0.07,0.5v0.29L2.38,8.71C2.3,8.86,2.3,9,2.3,9
			C2.16,9.29,2.09,9.65,2.02,9.94c-0.07,0.43-0.22,0.94-0.36,1.15v1.22l-0.43,1.3c-0.07,0.43-0.29,0.79-1.08,0.79
			C0.07,14.26,0,14.11,0,13.75c0-0.43,0.14-1.15,0.29-1.58l0.22-0.65c0-0.14,0.07-0.29,0.07-0.43c0.22-0.94,0.5-2.16,0.94-2.95
			c1.08-1.87,2.38-3.82,4.68-3.82h0.58c1.08,0.14,2.81,0.5,3.74,1.08C12.6,6.7,14.04,10.73,14.55,12.96z M12.31,60.34
			c0.58,0,0.94-0.58,0.94-1.15c0.07-0.29,0.22-0.72,0.36-0.94c0,0,0.07-0.14,0.07-0.22c0.07-0.14,0.14-0.79,0.14-0.94v-0.72
			c0-0.36,0.07-0.72,0.07-1.15c0-0.07,0.07-0.14,0.14-0.22V54c0-0.43,0.14-0.79,0.14-1.01v-3.89c0-0.22,0-0.43-0.14-0.58
			c-0.07-0.22-0.14-0.36-0.14-0.72c0.14-0.72,0.29-1.44,0.29-2.09c0-0.29,0-0.65-0.14-1.01c0-0.22,0-1.15-0.14-1.22
			c-0.14-1.94-0.36-3.96-0.58-5.98c0-0.43-0.14-0.79-0.22-1.15l-0.14-0.58l-0.43,1.3c-0.36,1.01-0.43,1.94-0.58,2.95
			c0,0.22-0.14,0.58-0.14,0.79c0,0.29-0.07,0.5-0.14,0.72l-0.22,1.3c-0.07,0.07-0.07,0.22-0.07,0.36l-0.22,0.86
			c-0.07,0.22-0.14,0.43-0.14,0.65v1.22c0,0.29-0.14,0.65-0.22,0.94c-0.14,0.36-0.22,0.72-0.22,1.15v1.3c0,0.43,0,1.01-0.07,1.44
			c-0.07,0.07-0.14,0.22-0.14,0.5c0,0.07,0,0.22,0.07,0.29v1.3c-0.14,0.29-0.14,0.58-0.14,0.86v0.65c0,0.22,0.07,0.5,0.07,0.58
			c0.14,0.22,0.22,0.5,0.22,0.79c0,0.22,0,0.36,0.07,0.58l0.22,0.79v0.36c0,0.14,0.07,0.29,0.07,0.29l0.14,0.58
			c0.14,0.36,0.36,0.79,0.36,1.3C11.59,59.98,12.1,60.34,12.31,60.34z"/>
		<path d="M72,51.7c-0.5,1.15-1.08,2.3-1.51,3.02l-0.29,0.43l-0.58,0.43c-0.07,0.07-0.07,0.22-0.07,0.29v0.29
			c-0.29,0.58-0.79,1.08-1.08,1.37l-0.65,0.58c-0.43,0.58-1.22,0.94-2.02,0.94c-0.43,0-1.22-0.22-1.73-0.43
			c-0.36-0.14-0.94-0.5-0.94-0.5c-0.58-0.36-1.15-0.94-1.44-1.66c-0.65-0.58-1.15-1.58-1.3-2.09c-0.29,0.94-0.58,1.58-1.15,2.38
			l-0.22,0.36c-0.43,0.58-1.01,1.3-1.8,1.44c-0.5,0-1.22,0-1.51-0.07c-0.14-0.07-0.36-0.29-0.29-0.29
			c-0.22-0.07-0.43-0.29-0.65-0.36c-0.5-0.22-0.94-0.58-1.3-0.94c-0.43-0.58-0.5-1.01-0.58-1.66l-0.14-1.01
			c-0.14-0.79-0.22-1.73-0.22-4.18c0,0,0-0.14,0.07-0.36c0.07-0.07,0.07-0.29,0.07-0.36c0.5-3.6,0.86-4.61,1.87-6.98
			c0.79-1.8,1.94-3.38,3.24-4.54c1.15-1.08,2.95-2.3,4.54-2.3c0.79,0,1.58,0.22,2.52,0.72c2.23,1.22,2.81,3.82,2.81,6.55
			c0,1.66-0.36,2.95-1.08,4.46l-0.58,0.36l-0.14-0.5c0-0.29,0.14-0.72,0.29-1.01c0.07-0.14,0.14-0.43,0.14-0.5
			c0-0.22,0.22-0.29,0.22-0.5c0.22-1.01,0.36-1.94,0.36-2.95c0-1.3-0.43-2.95-0.86-3.67c0-0.14-0.14-0.65-0.14-0.58l-0.29-0.22
			c-0.72-0.72-1.8-1.3-2.81-1.3c-0.29,0-0.58,0.07-0.79,0.14c-0.79,0.29-1.44,1.01-1.94,1.87l-0.72,0.86
			c-0.22,0.22-0.36,0.65-0.43,0.86c0,0.14-0.14,0.43-0.14,0.58c-0.07,0.07-0.36,0.72-0.36,0.79l-0.58,2.02
			c0,0.22-0.14,0.43-0.14,0.65L57.46,45c-0.14,0.43-0.29,0.86-0.36,1.37v1.01c0,0.07-0.07,0.14-0.07,0.29
			c-0.07,0.14-0.07,0.29-0.07,0.29c-0.36,2.16-0.43,4.54-0.43,6.84c0,2.52,0.5,2.81,0.65,2.81c1.01,0,2.3-2.38,2.52-2.88l0.07-0.65
			c0.07-0.43,0.14-0.86,0.29-1.15l0.22-0.65c0-0.29,0-1.01,0.07-1.22c0-0.14,0.07-0.29,0.07-0.36v-1.01c0-0.29,0.07-0.79,0.07-0.94
			c0.07-0.65,0.22-1.58,0.5-2.02c0.07-0.14,0.43-0.5,0.79-0.5h1.58c0.14,0.07,0.86,0.58,1.15,0.86c0.07,0.22,0.14,0.58,0.14,0.72
			c0,0.22-0.07,0.58-0.07,0.86v0.86c0,0.58-0.07,1.15-0.14,1.66c-0.07,0.43-0.07,0.86-0.07,1.37c0,0.22,0,0.65,0.14,1.94
			c0,0.36,0.07,0.79,0.22,1.15c0.07,0.22,0.14,0.65,0.14,0.79c0.29,0.94,0.65,1.58,1.15,1.58c0.43,0,1.01-0.36,1.66-0.94
			c0.65-0.72,1.37-1.58,1.73-2.09c0,0,1.01-1.8,1.08-2.09c0.29-0.65,1.22-2.09,1.37-2.88c0.22-0.72,1.08-2.3,1.3-2.81
			c0.14-0.22,0.43-0.43,0.65-0.43c0.14,0,0.14,0.22,0.14,0.29c-0.29,0.94-0.94,2.3-1.15,2.81L72,51.7z"/>
		<path d="M78.62,45l0.58-1.15c0.36-0.72,0.5-1.58,0.79-2.3c0.29-0.29,0.5-1.01,0.5-1.08c0-0.22-0.14-0.22-0.29-0.22h-1.22
			c-0.79-0.07-1.44-0.14-1.94-0.14c-0.29,0-0.43,0-0.65,0.07c-0.07,0-0.36,0.29-0.36,0.36c0,0.14-0.14,0.94-0.14,1.08
			s-0.5,1.01-0.58,1.15v0.79c-0.22,0.72-0.43,1.01-0.58,1.51c-0.22,0.65-0.22,1.58-0.5,2.23c-0.36,0.86-0.72,1.8-1.15,2.52
			c-0.43,0-0.72-0.14-0.79-0.58c0.36-1.01,1.01-2.02,1.3-2.95l0.58-2.09c0-0.07,0.14-0.36,0.14-0.43c0-0.07,0.29-0.36,0.29-0.43
			c0-0.07,0.22-0.79,0.22-0.94c0-0.07,0.07-0.72,0.07-0.79c0-0.07,0.29-0.36,0.29-0.43v-0.43c0-0.14,0.22-0.43,0.29-0.94
			c-0.43-0.72-1.44-1.51-2.09-2.16c-1.01-1.08-1.44-2.16-1.44-3.17c0-2.23,1.8-4.03,3.67-4.03c0.14,0,1.3,0,1.58,1.08v0.58
			c0.07,0.29,0.14,0.58,0.14,1.15c0,0.14-0.14,1.01-0.14,1.15c0,0.29-0.36,2.52-0.36,2.81c0,0.07-0.14,0.58-0.14,0.65
			c0,0,0.72,0.86,0.86,0.94c0.65,0.36,1.37,0.29,2.66,0.43c1.3,0.14,4.25,1.01,4.25,2.52c0,0.94,0,1.37-0.29,2.16
			c-0.36,1.08-0.58,2.16-0.94,3.24c-0.14,0.5-0.36,1.08-0.43,1.58v0.86c0,0.07-0.29,0.94-0.29,1.01c-0.07,0.07-0.22,0.65-0.29,1.08
			c-0.36,2.16-0.43,3.31-0.43,4.46c0,0.29-0.22,1.08-0.22,1.3c0,0.22-0.07,0.36-0.22,0.72c-0.07,0.14-0.07,0.29-0.07,0.36
			c0,0.43,0.36,0.58,0.58,1.08v0.36c0,0-0.14,0.72-0.14,0.79c0,0.07,0,0.36,0.07,0.5c0.07,0.14,0.29,0.36,0.36,0.65
			c0.07,0.29,0.22,0.43,0.29,0.65c0.07,0.22,0.36,0.36,0.43,0.65c0.07,0.29,0.5,0.72,0.58,0.86l0.36,0.5l0.65,0.65l1.15,0.86
			c0,0,0.29,0,0.94,0.14c0.5,0.14,1.44,0.22,2.02,0.22c0.5,0,0.94,0,1.73-0.14s1.15-0.07,1.44-0.22c0.29-0.14,1.01-0.36,1.37-0.58
			c0.36-0.22,0.79-0.86,1.37-1.15c0.58-0.29,0.79-0.43,1.01-0.79c0.22-0.36,0.14-0.14,0.58-0.65c0.43-0.5,0.58-0.79,0.72-1.08
			l0.65-1.08c0.14-0.43,0.43-0.65,0.58-0.65s0.22,0.14,0.22,0.43l-0.14,1.01c0,0-0.14,0.14-0.36,0.65c-0.22,0.5-0.22,0.43-0.5,0.79
			c-0.29,0.36-0.65,0.58-0.79,0.86s-0.14,0.43-0.65,0.72s-0.72,0.43-1.08,0.72c-0.36,0.29-0.72,0.65-1.22,0.86
			c-0.5,0.22-0.43,0.29-1.22,0.5c-0.79,0.22-1.15,0.36-1.58,0.43c-0.36,0.07-1.08,0.22-1.87,0.22c-0.07,0-0.29,0-2.59-0.14
			c0,0-0.86-0.29-1.58-0.5c-0.72-0.22-0.79-0.22-1.51-0.58c-0.72-0.36-0.86-0.14-1.37-0.65c-0.5-0.5-0.94-0.86-1.15-1.15
			c-0.22-0.29-0.65-0.43-0.86-0.79c-0.36-0.58-0.58-1.15-1.37-1.51c0-0.79-0.58-1.15-0.65-1.8c-0.07-0.65-0.29-1.15-0.43-1.66
			c-0.22-0.65-0.36-1.58-0.36-2.52s0.07-2.16,0.14-2.38c0.07-0.22,0.14-0.94,0.22-1.44c0.07-0.5,0.07-1.15,0.14-1.51
			C77.47,50.33,78.05,46.59,78.62,45z M75.89,36.44c0,0.22,0.22,0.5,0.22,0.58c0.07-0.43,0.07-0.94,0.07-2.52
			c0-0.07,0.22-0.72,0.22-0.79c0-0.29,0-1.73-0.14-2.02c0,0-0.07,0-0.22,0.36c-0.22,0.5-0.22,1.08-0.22,1.66s0,1.22,0.07,1.8V36.44z
			"/>
		<path d="M90.86,55.66c-1.94-2.52-2.59-4.54-2.59-8.64c0-1.01,0.07-2.02,0.22-3.1c0.07-0.36,0.22-0.65,0.22-1.01
			c0-0.22,0.22-1.44,0.29-1.87c0.14-0.86,0.43-1.66,0.86-2.16c0.36-0.58,1.3-0.94,2.23-0.94c0.36,0,0.58,0,0.79,0.14
			c0.22,0.14,0.79,0.79,0.86,0.94c0,0-0.07,0.79-0.07,1.08c-0.14,0.43-0.22,0.94-0.29,1.37c-0.07,0.58-0.14,1.08-0.36,1.66
			c0,0.07-0.07,0.22-0.07,0.29c-0.07,0.14-0.07,0.29-0.07,0.29c0,0.07-0.07,0.29-0.07,0.43c-0.07,0.22-0.07,0.36-0.07,0.36
			c0,0.07-0.07,0.29-0.14,0.43c-0.07,0.14-0.14,0.36-0.14,0.36v1.66c0,0.07-0.07,0.29-0.07,0.5c-0.07,0.22-0.07,0.5-0.07,0.5
			c-0.07,0.29-0.07,0.58-0.07,1.08v1.44c0,1.3,0,4.75,1.8,4.75c0.58,0,1.15-0.29,1.8-0.79l0.79-0.72c0.5-0.29,0.72-0.72,0.94-0.86
			c0-0.07,0.14-0.36,0.14-0.43c0.07-0.36,0.36-0.65,0.43-0.86c0-0.07,0.36-0.79,0.36-0.86c0.5-0.94,1.08-2.3,1.58-3.31
			c0.07,0,0.29-0.07,0.43-0.07s0.29,0.22,0.29,0.36c-0.14,0.72-0.72,1.87-0.86,2.16c-1.15,2.02-1.58,3.1-3.02,4.75
			c-0.07,0.07-0.29,0.29-0.29,0.29c-0.43,0.29-1.51,1.3-1.73,1.37c-0.36,0.14-1.22,0.43-1.73,0.43
			C92.59,56.67,91.3,56.17,90.86,55.66z M91.87,34.35l-0.58-1.66v-0.5c0.22-1.08,1.08-1.22,1.87-1.22c0.14,0.07,0.94,0.43,1.58,0.58
			c0.14,0.07,0.29,0.58,0.29,0.72c0,1.58-0.86,2.45-2.23,2.45C92.3,34.71,91.87,34.35,91.87,34.35z"/>
		<path d="M117,59.19c-0.22,0-0.43,0.07-0.58,0.43c-0.5,1.22-0.79,2.38-1.44,3.31c-0.58,0.86-0.5,0.65-1.01,1.08
			c-0.79,0.72-1.51,0.72-2.23,0.72c-1.8,0-2.88-1.73-3.82-3.67c-0.43-0.79-0.94-1.66-1.15-2.45c-0.58-1.58-1.01-3.53-1.37-5.18
			c-0.5-2.23-0.86-3.89-1.15-6.48l-0.07-1.51c0-0.22-0.07-0.86-0.07-1.08l0.22-0.36c0-0.07,0.29-0.58,0.29-0.65
			c0.58-1.15,1.08-1.87,1.66-3.1c0-0.14,0.14-0.5,0.14-0.58c0.36-1.37,1.3-2.45,1.73-3.82c0-0.07,0.07-0.65,0.07-0.72
			c0-0.07,0.58-0.72,0.58-0.86c0.5-0.86,1.58-4.39,2.23-5.9c0.39-1.04,0.43-2.37,0.91-3.31c-0.28-0.17-0.55-0.37-0.8-0.59
			c-0.07,0.27-0.26,0.82-0.26,0.94l-0.22,0.29l-0.58,1.94c0,0.07-0.07,0.14-0.07,0.22c-0.72,1.87-1.94,4.82-2.66,6.91
			c-0.29,0.5-0.29,1.37-0.65,1.87c-0.36,1.22-1.22,2.3-1.3,2.59c-0.14,0.43-0.58,1.3-0.79,1.66c-0.36,0.79-0.22,0.72-0.58,1.44
			l0.07-1.01c0-0.14-0.14-1.15-0.14-1.3c0.14-5.4,0.72-8.78,1.01-12.17l0.5-2.95c0.22-1.15,0.14-1.94,0.36-2.95
			c0.14-0.65,0.5-1.22,0.65-1.87c0.14-0.79,0.07-1.37,0.22-2.16c0.43-1.94,1.08-4.03,1.73-5.9c0-0.07,0.29-0.86,0.36-1.01l2.09-4.75
			c0.58-1.3,1.15-2.52,2.09-3.6c0.43-0.5,1.87-1.8,2.45-1.8c1.01,0,1.22,1.08,1.22,2.23c0,0.65-0.14,1.22-0.22,1.58v0.43
			c-0.07,1.44-0.36,1.8-0.43,2.3l-0.14,1.3c0,0.07-0.14,0.36-0.14,0.43l-0.22,1.8c-0.07,0.14-0.14,0.22-0.14,0.29
			c0,0.72-0.43,0.86-0.43,1.08c-0.31,0.55-0.36,1.3-0.45,1.82c0.54-0.51,1.07-1.01,1.6-1.52c0.07-0.34,0.15-0.67,0.22-1.02
			c0.07-0.86,0.58-1.51,0.65-2.3c0.43-1.87,0.72-3.67,0.79-5.62c0-1.66-0.22-3.67-2.23-3.67c-1.37,0-2.88,1.08-3.74,1.8
			c-0.94,0.79-1.8,2.02-2.74,2.88l-0.86,1.73c-0.65,0.94-1.08,1.66-1.51,2.59l-2.3,4.9c-0.29,0.58-0.36,1.15-0.5,1.73l-1.58,4.75
			c-0.58,1.73-0.79,3.6-1.15,5.33c-0.22,1.22-0.65,2.52-0.79,3.74c-0.36,2.23-0.29,4.32-0.43,6.55c0,0.22-0.14,1.66-0.14,1.87v4.18
			c0,1.8,0,3.89,0.14,5.69l0.14,1.44c0,0.29,1.58,6.77,2.23,8.28c0.86,2.23,2.09,4.9,4.03,6.48c1.51,1.22,2.23,1.37,4.39,1.8
			c0.29,0,0.72,0.07,1.3,0.07c0.58,0,1.37-0.29,1.73-0.5c1.94-1.15,2.16-2.23,3.02-4.1c0.29-0.58,0.65-1.37,0.65-1.87
			C117.36,59.26,117.14,59.19,117,59.19z"/>
		<path d="M133.34,46.88c-0.29,0-0.43,0.22-0.5,0.36l-1.37,2.88c-0.29,0.5-0.72,1.58-1.08,2.3l-0.22,0.43
			c-0.58,1.08-1.87,3.1-3.82,4.82l0.58-4.82l-0.14-1.94c0,0-0.07-0.14-0.07-0.29c-0.22-0.36-0.22-0.72-0.22-1.15
			c0-0.72,0.14-1.51,0.14-2.16c-0.14-0.29-0.22-0.72-0.22-1.08c0-0.22,0.07-0.36,0.07-0.5v-0.43c0-0.07-0.07-0.36-0.07-0.43v-1.15
			c0-1.58-0.5-2.59-2.38-2.88c-0.07,0-1.08,0.07-1.15,0.58c-0.5,0.72-0.58,1.66-0.72,2.45l-0.5,1.22c0,0.07-0.14,0.14-0.14,0.22
			c0-0.07-0.43,0.86-0.65,1.44l-0.22,0.5c0,0.14,0.07,0.29,0.07,0.43c-0.07,0.14-0.36,0.43-0.5,0.58l-0.94,2.09
			c0,0.07-0.07,0.72-0.14,0.79c0,0.07-0.36,0.29-0.43,0.29l-0.29,0.36c0,0.07-0.07,0.29-0.14,0.43l-0.5,0.5
			c-0.07,0.14-0.14,0.22-0.14,0.29c0,0.07-0.07,0.14-0.07,0.22l-0.29,0.14c0,0.07-0.07,0.22-0.14,0.36c0,0.07-0.14,0.22-0.14,0.29
			c-1.66,1.94-2.09,2.88-2.52,2.88c-0.14,0-0.36-0.22-0.43-0.43c-0.07-0.14-0.22-1.44-0.22-1.66c0-1.01,0.07-1.87,0.22-1.94
			c0.22-0.36,0.29-1.22,0.29-1.66c0.07-0.22,0.22-0.58,0.22-0.72c0.58-0.94,0.5-2.23,0.79-3.17l0.14-0.29
			c0-0.07,0.14-0.29,0.14-0.36c0.07-0.43,0.14-1.44,0.14-1.66c0-2.02-1.87-2.3-3.6-2.3c-0.94,0-2.38,0.36-2.95,0.79
			c0,0.14,0,0.36,0.29,0.36c0.36-0.07,0.65-0.07,0.86-0.07c0.36,0,0.5,0.22,0.5,0.72c0,0.36-0.22,1.66-0.36,2.74
			c-0.14,0.5-0.22,1.37-0.29,1.44c0,0.29-0.14,0.72-0.14,0.94c-0.14,0.79-0.29,1.8-0.29,2.66c0,0.94,0.14,1.8,0.36,2.74
			c0.14,0.43,0.65,1.3,0.94,1.66c0.72,0.72,1.87,1.3,3.1,1.3s2.09-1.22,2.81-2.3c0.22-0.22,0.65-0.86,0.65-0.86
			c1.08-1.22,1.87-3.02,2.66-4.54l0.29-0.65c0.07,0,0.22-0.36,0.29-0.58l0.22-0.29l0.14-0.5c0-0.07,0.22-0.5,0.29-0.58l0.72-1.58
			c0.14,0.5,0.22,1.58,0.22,2.38c0,0.5,0,1.08,0.07,1.3c0.07,0.43,0.07,1.08,0.07,1.44c0,1.01-0.14,3.1-0.22,4.9
			c-0.07,1.22-0.14,2.3-0.14,2.59c0,0,0,1.3-0.36,3.17c-0.29,0.72-1.15,1.3-1.66,1.8l-1.01,1.01c0,0.07-0.07,0.22-0.07,0.22
			l-0.22,0.29l-0.29,0.07l-1.08,1.15c-0.65,0.65-1.22,1.15-1.66,1.8l-0.94,1.3l-0.36,0.29c-0.29,0.36-0.58,0.72-0.86,0.94
			l-0.72,0.65l-1.3,1.37l-0.14,0.29c0-0.07-0.29,0.36-0.5,0.58c-0.07,0.07-0.36,0.36-0.43,0.5l-0.86,0.94l-0.36,0.86l-0.5,0.5
			c0,0-0.07,0.22-0.14,0.36l-0.14,0.29l-0.43,0.43l-0.65,1.08c0,0.07-0.07,0.22-0.07,0.29c-0.07,0.22-0.14,0.43-0.22,0.5l-0.36,0.29
			c0,0-0.07,0.22-0.14,0.29c0,0.07-0.07,0.22-0.07,0.29l-0.36,0.43l-0.33,0.63c0.15,0.37,0.29,0.74,0.43,1.11
			c0.16-0.33,0.33-0.66,0.33-0.66c0.14-0.29,0.5-0.65,0.65-0.79l0.22-0.43c0.07-0.14,0.22-0.29,0.22-0.29s0.07-0.22,0.14-0.36
			c0.07-0.22,0.22-0.43,0.29-0.43c0-0.07,0.36-0.65,0.43-0.72c0,0,0.22-0.36,0.29-0.5l0.22-0.36c0.14-0.22,0.29-0.36,0.5-0.5
			l0.29-0.29c0.14-0.14,0.29-0.58,0.43-0.79l0.5-0.58c0.07-0.07,0.22-0.29,0.22-0.36l4.9-5.47l0.58-0.5c0,0,0.14-0.5,0.43-0.72
			c0.07-0.07,0.22-0.14,0.22-0.22l1.3-1.44l1.73-1.58c0.36-0.43,0.79-0.79,1.3-1.3c-0.29,3.38-0.65,5.62-1.01,7.42l-0.43,1.22
			l-0.43,1.58c0,0.07-0.14,0.29-0.14,0.36c-0.07,0.07-0.22,0.36-0.22,0.43c-0.07,0.22-0.14,0.65-0.29,0.86
			c-0.14,0.29-0.22,0.58-0.29,0.86c0,0.14-0.07,0.29-0.07,0.43L117,80.79l-1.01,1.66c-0.07,0.14-0.43,0.86-0.43,0.79
			c0-0.07-0.07,0-0.22,0.29l-0.72,1.01l-0.36,0.79c-0.14,0.07-0.22,0.22-0.22,0.29l-0.36,0.43c-0.22,0.22-0.36,0.43-0.58,0.94
			c0,0.07-0.07,0.14-0.07,0.22l-3.31,3.02c-0.29,0.36-0.29,0.43-0.86,0.65l-0.55,0.33c0.4,0.13,0.8,0.27,1.2,0.41
			c0.48-0.18,0.46-0.27,0.86-0.67c0.29-0.22,0.72-0.58,1.3-0.86c0.65-0.43,2.52-2.02,2.88-2.38c2.02-2.02,3.74-4.1,4.97-7.06
			l1.87-2.81l0.29-1.08l0.65-1.01c0-0.07,0.14-0.58,0.36-0.79c0-0.07,0-0.43,0.07-0.5c0-0.07,0.14-0.36,0.14-0.43
			c0.5-1.3,1.01-2.59,1.37-3.96l0.94-3.02v-0.72l0.14-0.29c0.07-0.07,0.14-0.29,0.14-0.29v-0.43c0-0.22,0.07-0.43,0.07-0.65
			c0.07,0.14,0.14-0.79,0.22-1.08l0.14-0.5c0-0.14,0-0.65-0.07-0.86l0.29-2.52c1.22-1.22,2.95-3.46,3.82-4.68
			c0.65-1.08,1.3-2.16,1.73-3.17l1.08-2.23c0.29-0.65,0.72-1.66,0.94-2.38C133.7,47.16,133.49,46.88,133.34,46.88z"/>
		<path d="M148.03,55.44c-0.94-0.94-1.15-3.24-1.22-4.39v-3.74c0-0.22,0.07-1.01,0.07-1.73c0.07-0.79,0.07-1.66,0.07-2.02
			c0-0.14,0-0.58,0.14-0.94c0-0.14,0.07-0.43,0.07-0.5c0-0.07,0.14-0.5,0.29-0.79c0.07-0.14,0.07-0.29,0.07-0.36
			c0-0.07,0-0.36,0.07-0.58c0-0.14,0.14-0.43,0.14-0.5c0-0.14,0-0.65,0.07-0.94c0-0.14,0.07-0.36,0.07-0.43
			c0-0.14,0.07-0.22,0.07-0.36c0.07-0.36,0.14-0.72,0.14-1.01c0-0.22-0.07-0.79-0.29-0.79c-0.29,0-1.44,1.44-1.44,1.44
			c-0.07,0.36-0.29,0.58-0.5,0.79c-0.22,0.22-0.36,0.36-0.43,0.5l-0.14,0.22c-0.14,0.22-0.22,0.5-0.36,0.65l-0.43,0.58
			c-0.58,0.86-1.22,1.73-1.51,2.3c-0.14,0.29-0.29,0.58-0.36,0.86l-0.29,0.79c-0.07,0.07-0.36,0.58-0.36,0.65
			c0,0.07-0.07,0.14-0.07,0.29c-0.07,0.14-0.07,0.29-0.07,0.29l-0.58,1.15c-0.07,0.07-0.22,0.5-0.22,0.58c0-0.07-0.22,0.5-0.29,0.72
			c-0.14,0.36-0.22,0.72-0.29,1.08c0,0.14-0.14,0.43-0.14,0.58l-0.65,2.3c-0.43,1.01-0.5,1.3-0.5,1.44l-0.72,1.94
			c-0.14,0.29-0.79,0.29-0.94,0.29h-0.79c0,0-0.14-0.29-0.14-0.36c-0.58-1.44-1.01-3.02-1.01-4.61v-0.72c0-0.07,0-0.36,0.07-0.5
			c0-0.29,0.14-0.58,0.14-0.86c0-0.14,0.07-0.43,0.14-0.72c0-0.65-0.22-1.37-0.22-1.37c-0.14-0.86-0.29-1.22-0.43-1.22
			c-0.29,0-0.5,0.29-0.79,0.86c-0.07,0-0.29,0.14-0.29,0.29l-0.07,0.5l-0.43,1.08c-0.14,0.14-0.36,0.29-0.5,0.29
			s-0.29-0.14-0.29-0.36v-0.29l0.43-0.86c0,0,0.14-0.22,0.14-0.43c0.79-1.44,1.58-2.38,2.45-2.38c0.72,0,1.37,0.43,2.02,0.86
			l0.43,0.43c0.43,0.72,0.72,1.44,0.79,3.1c0.07,0,0.22,0.07,0.36,0.07s0.36-0.58,0.43-0.79c0.22-0.36,0.58-1.22,0.65-1.66
			l0.94-2.16l1.3-2.59l0.58-0.65l0.79-1.51l0.22-0.22l0.86-1.3c0.43-0.72,0.94-1.37,1.58-1.87l0.5-0.29c0-0.07,0.14-0.14,0.14-0.22
			c0.14-0.29,0.58-0.5,0.58-0.5h0.94c0.79,0.07,1.22,0.72,1.58,1.15c0.29,0.43,0.65,1.15,0.79,1.73c0.22,0.79,0.43,1.66,0.43,2.52
			v0.36c0,0.14-0.07,0.58-0.07,1.08c-0.07,0.5-0.07,1.08-0.07,1.15v2.66c0,0.07-0.07,0.22-0.07,0.43c-0.07,0.22-0.07,0.43-0.07,0.43
			c-0.14,1.8-0.22,3.53-0.22,5.33c0,0.79,0,1.8,0.07,2.59c0,0.07,0.14,0.36,0.22,0.43c0.14,0.58,0.22,1.15,0.72,1.15
			c0.65,0,1.44-0.43,2.74-2.09c0.5-0.29,0.72-0.79,0.94-0.94c0-0.07,0.14-0.36,0.14-0.43c0.14-0.29,0.43-0.65,0.5-0.86
			c0-0.07,0.36-0.79,0.36-0.86c0.5-0.94,1.08-2.3,1.58-3.31c0.07,0,0.29-0.07,0.43-0.07c0.14,0,0.29,0.22,0.29,0.36
			c-0.14,0.72-0.72,1.87-0.86,2.16c-1.15,2.02-1.66,3.46-3.1,5.11c-1.01,1.3-2.09,2.52-3.67,2.52
			C150.12,57.46,148.9,56.6,148.03,55.44z"/>
	</g>
	<g>
		<path class="st0" d="M14.55,12.96c0,0.07,0.14,0.36,0.14,0.36c0.07,0.36,0.14,0.79,0.14,1.15c0,0.14,0.07,0.29,0.07,0.5l0.43,1.51
			c0,0.07,0.07,0.22,0.07,0.36c0,0.29,0,0.58,0.07,0.79l0.36,1.66c0.22,0.43,0.5,1.37,0.58,1.73c0.07,0.86,0.14,1.66,0.43,2.02
			c0.36-0.36,0.65-0.72,0.86-1.15l0.58-0.94c0.14-0.14,0.14-0.29,0.22-0.43c0-0.07,0.14-0.29,0.14-0.36l0.5-0.5l0.22-0.07V19.3
			c0-0.14,0.36-0.43,0.36-0.43c0-0.07,0-0.22,0.07-0.29c0.43-0.5,0.86-1.15,1.08-1.51l0.58-0.58c0.22-0.36,0.58-0.72,0.79-1.08
			l0.36-0.14l0.5-0.36c0.07-0.5,0.43-0.94,0.86-1.3c0.36-0.29,0.72-0.65,0.79-0.94c0.5-0.36,0.86-0.72,1.22-1.01
			c0.72-0.65,1.58-1.22,3.17-1.22c1.87,0.14,4.32,2.74,5.04,6.77c0.36,0.43,0.36,1.51,0.36,2.3v2.66c0,0.36-0.07,1.58-0.29,1.8v1.37
			c-0.14,0.22-0.14,0.36-0.14,0.43v0.5c0,0.07-0.07,0.22-0.07,0.29c-0.07,0.14-0.07,0.22-0.07,0.22c0,0.07-0.07,0.36-0.07,0.36
			c-0.07,1.01-0.36,2.23-0.43,3.31c0,0.5-0.14,1.58-0.14,1.58l-0.22,0.14c0,0-0.07,0.72-0.07,0.94v0.5c0,0.14,0,0.29-0.14,0.5
			c-0.07,0.22-0.14,0.43-0.14,0.65L32.83,35v1.37c0,0.07-0.07,0.36-0.14,0.5c0,0.07-0.07,0.29-0.14,0.43
			c-0.07,0.14-0.07,0.36-0.07,0.36l-0.22,1.73c-0.14,0.07-0.22,0.36-0.22,0.36c-0.14,0.36-0.14,0.72-0.14,1.08
			c0,0.29-0.07,0.58-0.14,0.86c-0.14,1.08-0.43,2.16-0.58,3.24c0,0.07-0.07,0.36-0.07,0.65c-0.07,0.29-0.07,0.58-0.07,0.65
			l-0.07,0.22v1.22c0,0.07-0.07,0.65-0.22,0.72c-0.07,0.14-0.14,0.65-0.14,1.08l-0.07,0.94c0.22-0.22,0.5-0.5,0.58-0.86v-0.29
			c0-0.22,0.07-0.5,0.07-0.58c0-0.07,0.14-0.43,0.14-0.43c0-0.07,0.29-0.86,0.43-1.3c0.22-0.58,0.36-1.08,0.43-1.51
			c0.07-0.5,0.14-0.79,0.29-1.15l0.22-0.72c0-0.22,0.14-0.29,0.22-0.36c0.14-0.14,0.22-0.29,0.22-0.43l0.29-1.15
			c0.07-0.22,0.14-0.43,0.14-0.72c0-0.43,0-0.72,0.22-0.94l0.22-0.14c0,0,0-0.14,0.07-0.29c0-0.07,0.07-0.29,0.07-0.36l0.43-0.86
			c0.14-0.29,0.29-0.72,0.36-1.15c0-0.14,0.07-0.29,0.14-0.58c0-0.07,0.07-0.14,0.07-0.22l0.58-1.44c0.07-0.29,0.14-0.5,0.29-0.79
			l1.01-2.09c0-0.14,0.07-0.43,0.07-0.5c0.07-0.72,0.29-1.15,0.79-1.66c0.07-0.5,0.14-0.65,0.29-0.79l1.8-3.82l0.14-0.43l1.66-2.16
			l0.58-0.5c0-0.07,0.36-0.43,0.43-0.43c0.43-0.58,0.72-0.94,1.51-0.94h0.43c2.16,0.29,2.52,3.02,2.95,3.17
			c0.07,0.22,0.22,0.36,0.22,0.58c0,0.29,0.07,0.65,0.07,0.86v4.75c0,0.22-0.07,0.5-0.07,0.58l-0.07,0.22
			c-0.22,0.94-0.22,2.3-0.29,3.17c0,0.43,0,1.51-0.07,1.94c-0.22,0.43-0.22,0.94-0.22,1.51v1.22c-0.43,1.01-0.79,2.3-0.86,3.53v0.43
			c0,0.29-0.07,0.58-0.07,0.72v1.01l-0.22,2.02c-0.07,0.14-0.14,0.22-0.14,0.36c0,0.07,0.14,0.22,0.22,0.29v1.3
			c-0.07,0.07-0.07,0.22-0.07,0.36v0.36c-0.14,0.29-0.14,0.65-0.14,0.86c0,0.36,0.07,0.72,0.14,1.08c0.07,0.29,0.14,0.58,0.14,0.94
			c0,0.14,0.07,0.58,0.07,1.01v1.3c0.07,0.79,0.29,1.51,0.36,2.3c0,0.22,0.43,0.72,0.79,0.72c0.43,0,1.01-0.94,1.08-1.08
			c0.07-0.14,0.22-0.43,0.58-0.43c0.22,0,0.5,0.36,0.5,0.65c-0.58,1.94-1.37,3.17-2.95,3.17c-0.36,0-0.79-0.07-1.15-0.22
			c-0.14,0-0.36-0.14-0.5-0.22c-0.14-0.07-0.29-0.14-0.5-0.14l-0.43-0.07c-0.65-0.65-1.3-1.8-1.44-2.74
			c-0.07-0.22-0.29-0.43-0.29-0.79c0-0.14,0.07-0.29,0.07-0.36c0-0.07,0-0.22-0.14-0.22c0-0.43,0.07-0.65,0.07-0.79
			c0-0.43-0.14-0.94-0.29-1.44c-0.14-0.36-0.22-0.79-0.22-1.08v-0.5c0-0.58-0.07-1.58-0.07-2.16l0.22-0.29
			c-0.07-0.07-0.14-0.07-0.22-0.07v-2.3l-0.22-0.79v-0.43l0.14-0.29v-1.44c0-0.22,0-0.65,0.14-1.08c0-0.29,0.07-0.79,0.14-1.01
			c0.07-0.22,0.14-0.36,0.14-0.58c0.14-0.94,0.22-2.02,0.22-3.1c0-0.29-0.07-0.58-0.07-0.86l0.07-1.01
			c0.07-0.14,0.14-0.29,0.14-0.43c0-0.07-0.07-0.36-0.14-1.58c0.14-0.14,0.14-0.29,0.14-0.43c0-0.07-0.07-0.14-0.07-0.29v-0.36
			c0.22-2.23,0.36-4.61,0.43-6.91c0-0.65,0.07-1.44,0.07-2.16c0.07-0.07,0.14-0.14,0.14-0.22c0-0.43-0.14-0.72-0.36-0.72
			c-0.5,0.36-0.72,0.79-0.72,0.79l-1.08,1.73c0,0-0.14,0.22-0.36,0.43v0.36c0,0.14-0.94,1.8-1.3,2.23c0,0.07-0.07,0.29-0.07,0.36
			c0,0.22-0.07,0.43-0.07,0.5c-0.43,0.36-0.43,0.43-0.43,0.43c0,0.14-0.07,0.36-0.14,0.43c-0.22,0.86-0.72,2.45-1.3,3.31
			c0,0.43-0.36,1.15-0.5,1.37c0,0.07-0.07,0.22-0.07,0.22c-0.14,0.36-0.22,0.58-0.22,0.58c-0.07,0.07-0.14,0.14-0.14,0.22
			s-0.07,0.22-0.07,0.5c-0.07,0.36-0.22,0.65-0.36,0.94c-0.14,0.22-0.29,0.65-0.36,0.86v0.5l-0.29,0.36
			c-0.07,0.07-0.22,0.07-0.29,0.22c0,0.07-0.07,0.29-0.07,0.5c-0.29,1.01-0.65,2.02-1.01,2.95c-0.14,0.29-0.22,0.58-0.29,0.86
			c-0.07,0.22-0.14,0.43-0.14,0.65l-0.14,0.65c0-0.07-0.14,0.14-0.22,0.29l-0.14,0.29c0,0.07-0.07,0.36-0.07,0.58
			c-0.07,0.29-0.07,0.5-0.07,0.5c-0.07,0.43-0.22,0.86-0.36,1.3c-0.14,0.36-0.29,0.79-0.36,1.15c-0.14,0.79-0.43,1.66-0.58,2.45
			l-0.29,0.43c-0.07,0.43-0.29,1.15-0.43,1.58c-0.22,0.65-0.43,1.3-0.43,1.94c0,0.07,0.07,0.14,0.07,0.22l-0.14,0.36
			c-0.14,0.5-0.29,0.94-0.58,1.44c0,0.07-0.07,0.22-0.07,0.29c-0.07,0.22-0.29,0.58-0.43,0.58c-0.14,0.07-0.22,0.07-0.29,0.07
			c-0.29,0.07-0.58,0.07-0.72,0.07c-1.3,0-1.94-1.01-2.16-2.02c0-0.14,0-0.29,0.07-0.43c0.07-0.22,0.14-0.5,0.14-0.72
			c0-0.07,0-0.22-0.14-0.29v-1.08c0.07-0.07,0.07-0.14,0.07-0.22c0-0.14-0.07-0.29-0.07-0.5c0-0.07-0.07-0.36-0.14-0.65v-3.82
			c0-0.5,0.07-1.87,0.22-2.16v-2.09c0.22-0.22,0.22-0.79,0.22-1.15v-1.01c0-0.07,0-0.5,0.07-0.79c0-0.22,0.07-0.65,0.07-0.79
			c0.14-0.14,0.14-0.22,0.14-0.43c0-0.07,0-0.29,0.07-0.36v-0.29c0.07-0.65,0.14-1.08,0.36-1.58c0-0.36,0.07-1.22,0.14-1.8
			c0.07-0.72,0.14-1.44,0.14-1.73v-0.43c0-0.5,0.14-1.66,0.22-1.94c0-0.58,0.07-1.73,0.29-2.23l0.29-1.15
			c0-0.14,0.07-0.36,0.07-0.65c0.07-0.79,0.14-2.16,0.36-2.52c0-0.14,0-0.5,0.07-0.72c0-0.29,0.07-0.72,0.07-0.86s0-0.5,0.07-0.72
			c0.07-0.43,0.22-1.01,0.22-1.37v-3.67c0.14-0.22,0.14-0.5,0.14-0.72c0-0.14-0.07-0.58-0.07-1.01c-0.07-0.29-0.07-0.72-0.07-1.15
			v-1.22c0-0.65-0.07-1.37-0.29-2.02c-0.29-0.29-0.43-0.36-0.58-0.36c-0.36,0-0.65,0.14-0.79,0.29l-0.65,0.43
			c-0.22,0.14-0.29,0.07-0.5,0.5c0,0-0.36,0.43-0.5,0.58l-0.36,0.14c-0.14,0.07-0.22,0.07-0.29,0.29l-1.22,1.15l-0.79,1.15
			l-1.08,1.01c-0.22,0.22-0.36,0.43-0.43,0.65l-0.5,0.86c-0.14,0.36-0.43,0.86-0.86,1.08c-0.22,0.36-0.58,0.86-0.72,1.22
			c0,0-0.14,0.22-0.22,0.29c-0.07,0.07-0.14,0.14-0.22,0.14l-0.22,0.5c-0.07,0.29-0.22,0.72-0.36,0.86l-0.22,0.29
			c0,0.07-0.07,0.14-0.07,0.22c-0.07,0.14-0.07,0.29-0.07,0.29s-0.29,0.22-0.36,0.36c0,0.14-0.22,0.22-0.43,0.36
			c0.07,0.65,0.07,1.08,0.07,1.51v0.36c0,0.14,0,0.22,0.07,0.29c0.07,0.65,0.14,1.3,0.14,2.02l0.14,1.94c0,0.07,0.07,0.22,0.07,0.29
			c0.07,0.29,0.22,0.79,0.22,1.08v0.79c0,0.36,0.07,1.51,0.36,1.8v0.5c0,0.58,0,1.01,0.07,1.51c0,0.5,0.07,1.08,0.07,1.58v2.66
			c0,1.15,0.07,2.3,0.07,3.38v1.22c-0.07,0.14-0.14,1.51-0.22,2.02c-0.22,0.79-0.29,1.58-0.29,2.3c0,0.07,0.07,0.14,0.07,0.36
			c-0.22,0.58-0.5,1.58-0.5,2.16c-0.29,0.65-0.36,1.08-0.43,1.73v0.43c-0.22,0.14-0.29,0.29-0.29,0.5
			c-0.14,0.22-0.36,1.15-0.36,1.37c-0.07,0.07-0.14,0.36-0.22,0.58c-0.07,0.22-0.29,0.65-0.29,0.58l-0.72,1.58
			c0,0.07-0.07,0.14-0.07,0.22c-0.14,0.14-0.14,0.29-0.14,0.29l-0.79,0.86c-0.58,0.86-1.73,1.01-2.16,1.01
			c-0.36,0-0.94-0.36-1.22-0.65c-0.36-0.58-0.43-0.86-0.65-1.51c-0.07-0.36-0.29-1.15-0.43-1.44c-0.22-0.22-0.22-1.01-0.22-1.15
			c0-0.07,0-0.14,0.07-0.29c0-0.14,0-0.43-0.07-0.5c-0.07-0.14-0.14-0.36-0.14-0.58c0-0.14,0.07-0.22,0.07-0.5
			c0-0.07,0-0.22-0.07-0.36c0,0-0.07-0.07-0.07-0.36c0-0.86,0-2.02,0.14-3.24v-0.5c0-0.22,0.07-0.36,0.07-0.58l-0.07-0.22
			c0-0.07,0-0.22,0.07-0.22c0-0.07,0.07-0.22,0.07-0.29l0.22-1.51c0.14-0.65,0.22-1.22,0.22-1.94c0-0.07-0.07-0.14-0.07-0.29
			l0.29-1.37c0.14-0.43,0.22-1.15,0.22-1.51l-0.07-0.22c0-0.07,0.07-0.29,0.22-0.65l0.36-1.8c0.14-0.43,0.29-0.94,0.36-1.37
			l0.43-1.37c0.07-0.65,0.22-1.22,0.43-1.87l0.29-0.58l-0.14-1.66c0-0.29-0.07-0.94-0.14-1.22c-0.07-0.22-0.07-0.58-0.07-0.86
			c-0.07-0.14-0.14-0.5-0.14-0.94c-0.07-0.65-0.07-1.3-0.36-1.58v-1.08c-0.14-0.36-0.29-1.01-0.29-1.3c0-0.14-0.07-0.43-0.14-0.72
			c-0.07-0.22-0.07-0.65-0.07-0.79c-0.14-0.43-0.22-1.15-0.29-1.66c0-0.29,0-0.58-0.07-0.72l-0.14-0.22
			c-0.14-0.43-0.14-0.65-0.14-0.94c-0.07-0.43-0.14-1.01-0.22-1.08c-0.14-0.36-0.5-1.94-0.5-2.38v-0.94c0-0.07-0.07-0.14-0.07-0.29
			c-0.07-0.5-0.22-1.37-0.36-1.51l-0.22-1.58c-0.07-0.07-0.29-0.5-0.29-0.58c-0.07-0.86-0.43-2.23-0.72-3.1
			C8.06,8.71,7.78,8.28,7.49,7.85C7.42,7.71,7.27,7.42,7.27,7.13L7.06,6.48L6.77,6.05C6.7,5.9,6.26,5.33,6.12,5.26H5.18L4.46,5.83
			L4.1,5.98C3.89,6.05,3.67,6.41,3.53,6.55L3.1,7.13l-0.5,0.5c0,0.07-0.07,0.29-0.07,0.5v0.29L2.38,8.71C2.3,8.86,2.3,9,2.3,9
			C2.16,9.29,2.09,9.65,2.02,9.94c-0.07,0.43-0.22,0.94-0.36,1.15v1.22l-0.43,1.3c-0.07,0.43-0.29,0.79-1.08,0.79
			C0.07,14.26,0,14.11,0,13.75c0-0.43,0.14-1.15,0.29-1.58l0.22-0.65c0-0.14,0.07-0.29,0.07-0.43c0.22-0.94,0.5-2.16,0.94-2.95
			c1.08-1.87,2.38-3.82,4.68-3.82h0.58c1.08,0.14,2.81,0.5,3.74,1.08C12.6,6.7,14.04,10.73,14.55,12.96z M12.31,60.34
			c0.58,0,0.94-0.58,0.94-1.15c0.07-0.29,0.22-0.72,0.36-0.94c0,0,0.07-0.14,0.07-0.22c0.07-0.14,0.14-0.79,0.14-0.94v-0.72
			c0-0.36,0.07-0.72,0.07-1.15c0-0.07,0.07-0.14,0.14-0.22V54c0-0.43,0.14-0.79,0.14-1.01v-3.89c0-0.22,0-0.43-0.14-0.58
			c-0.07-0.22-0.14-0.36-0.14-0.72c0.14-0.72,0.29-1.44,0.29-2.09c0-0.29,0-0.65-0.14-1.01c0-0.22,0-1.15-0.14-1.22
			c-0.14-1.94-0.36-3.96-0.58-5.98c0-0.43-0.14-0.79-0.22-1.15l-0.14-0.58l-0.43,1.3c-0.36,1.01-0.43,1.94-0.58,2.95
			c0,0.22-0.14,0.58-0.14,0.79c0,0.29-0.07,0.5-0.14,0.72l-0.22,1.3c-0.07,0.07-0.07,0.22-0.07,0.36l-0.22,0.86
			c-0.07,0.22-0.14,0.43-0.14,0.65v1.22c0,0.29-0.14,0.65-0.22,0.94c-0.14,0.36-0.22,0.72-0.22,1.15v1.3c0,0.43,0,1.01-0.07,1.44
			c-0.07,0.07-0.14,0.22-0.14,0.5c0,0.07,0,0.22,0.07,0.29v1.3c-0.14,0.29-0.14,0.58-0.14,0.86v0.65c0,0.22,0.07,0.5,0.07,0.58
			c0.14,0.22,0.22,0.5,0.22,0.79c0,0.22,0,0.36,0.07,0.58l0.22,0.79v0.36c0,0.14,0.07,0.29,0.07,0.29l0.14,0.58
			c0.14,0.36,0.36,0.79,0.36,1.3C11.59,59.98,12.1,60.34,12.31,60.34z"/>
		<path class="st0" d="M72,51.7c-0.5,1.15-1.08,2.3-1.51,3.02l-0.29,0.43l-0.58,0.43c-0.07,0.07-0.07,0.22-0.07,0.29v0.29
			c-0.29,0.58-0.79,1.08-1.08,1.37l-0.65,0.58c-0.43,0.58-1.22,0.94-2.02,0.94c-0.43,0-1.22-0.22-1.73-0.43
			c-0.36-0.14-0.94-0.5-0.94-0.5c-0.58-0.36-1.15-0.94-1.44-1.66c-0.65-0.58-1.15-1.58-1.3-2.09c-0.29,0.94-0.58,1.58-1.15,2.38
			l-0.22,0.36c-0.43,0.58-1.01,1.3-1.8,1.44c-0.5,0-1.22,0-1.51-0.07c-0.14-0.07-0.36-0.29-0.29-0.29
			c-0.22-0.07-0.43-0.29-0.65-0.36c-0.5-0.22-0.94-0.58-1.3-0.94c-0.43-0.58-0.5-1.01-0.58-1.66l-0.14-1.01
			c-0.14-0.79-0.22-1.73-0.22-4.18c0,0,0-0.14,0.07-0.36c0.07-0.07,0.07-0.29,0.07-0.36c0.5-3.6,0.86-4.61,1.87-6.98
			c0.79-1.8,1.94-3.38,3.24-4.54c1.15-1.08,2.95-2.3,4.54-2.3c0.79,0,1.58,0.22,2.52,0.72c2.23,1.22,2.81,3.82,2.81,6.55
			c0,1.66-0.36,2.95-1.08,4.46l-0.58,0.36l-0.14-0.5c0-0.29,0.14-0.72,0.29-1.01c0.07-0.14,0.14-0.43,0.14-0.5
			c0-0.22,0.22-0.29,0.22-0.5c0.22-1.01,0.36-1.94,0.36-2.95c0-1.3-0.43-2.95-0.86-3.67c0-0.14-0.14-0.65-0.14-0.58l-0.29-0.22
			c-0.72-0.72-1.8-1.3-2.81-1.3c-0.29,0-0.58,0.07-0.79,0.14c-0.79,0.29-1.44,1.01-1.94,1.87l-0.72,0.86
			c-0.22,0.22-0.36,0.65-0.43,0.86c0,0.14-0.14,0.43-0.14,0.58c-0.07,0.07-0.36,0.72-0.36,0.79l-0.58,2.02
			c0,0.22-0.14,0.43-0.14,0.65L57.46,45c-0.14,0.43-0.29,0.86-0.36,1.37v1.01c0,0.07-0.07,0.14-0.07,0.29
			c-0.07,0.14-0.07,0.29-0.07,0.29c-0.36,2.16-0.43,4.54-0.43,6.84c0,2.52,0.5,2.81,0.65,2.81c1.01,0,2.3-2.38,2.52-2.88l0.07-0.65
			c0.07-0.43,0.14-0.86,0.29-1.15l0.22-0.65c0-0.29,0-1.01,0.07-1.22c0-0.14,0.07-0.29,0.07-0.36v-1.01c0-0.29,0.07-0.79,0.07-0.94
			c0.07-0.65,0.22-1.58,0.5-2.02c0.07-0.14,0.43-0.5,0.79-0.5h1.58c0.14,0.07,0.86,0.58,1.15,0.86c0.07,0.22,0.14,0.58,0.14,0.72
			c0,0.22-0.07,0.58-0.07,0.86v0.86c0,0.58-0.07,1.15-0.14,1.66c-0.07,0.43-0.07,0.86-0.07,1.37c0,0.22,0,0.65,0.14,1.94
			c0,0.36,0.07,0.79,0.22,1.15c0.07,0.22,0.14,0.65,0.14,0.79c0.29,0.94,0.65,1.58,1.15,1.58c0.43,0,1.01-0.36,1.66-0.94
			c0.65-0.72,1.37-1.58,1.73-2.09c0,0,1.01-1.8,1.08-2.09c0.29-0.65,1.22-2.09,1.37-2.88c0.22-0.72,1.08-2.3,1.3-2.81
			c0.14-0.22,0.43-0.43,0.65-0.43c0.14,0,0.14,0.22,0.14,0.29c-0.29,0.94-0.94,2.3-1.15,2.81L72,51.7z"/>
		<path class="st0" d="M78.62,45l0.58-1.15c0.36-0.72,0.5-1.58,0.79-2.3c0.29-0.29,0.5-1.01,0.5-1.08c0-0.22-0.14-0.22-0.29-0.22
			h-1.22c-0.79-0.07-1.44-0.14-1.94-0.14c-0.29,0-0.43,0-0.65,0.07c-0.07,0-0.36,0.29-0.36,0.36c0,0.14-0.14,0.94-0.14,1.08
			s-0.5,1.01-0.58,1.15v0.79c-0.22,0.72-0.43,1.01-0.58,1.51c-0.22,0.65-0.22,1.58-0.5,2.23c-0.36,0.86-0.72,1.8-1.15,2.52
			c-0.43,0-0.72-0.14-0.79-0.58c0.36-1.01,1.01-2.02,1.3-2.95l0.58-2.09c0-0.07,0.14-0.36,0.14-0.43c0-0.07,0.29-0.36,0.29-0.43
			c0-0.07,0.22-0.79,0.22-0.94c0-0.07,0.07-0.72,0.07-0.79c0-0.07,0.29-0.36,0.29-0.43v-0.43c0-0.14,0.22-0.43,0.29-0.94
			c-0.43-0.72-1.44-1.51-2.09-2.16c-1.01-1.08-1.44-2.16-1.44-3.17c0-2.23,1.8-4.03,3.67-4.03c0.14,0,1.3,0,1.58,1.08v0.58
			c0.07,0.29,0.14,0.58,0.14,1.15c0,0.14-0.14,1.01-0.14,1.15c0,0.29-0.36,2.52-0.36,2.81c0,0.07-0.14,0.58-0.14,0.65
			c0,0,0.72,0.86,0.86,0.94c0.65,0.36,1.37,0.29,2.66,0.43c1.3,0.14,4.25,1.01,4.25,2.52c0,0.94,0,1.37-0.29,2.16
			c-0.36,1.08-0.58,2.16-0.94,3.24c-0.14,0.5-0.36,1.08-0.43,1.58v0.86c0,0.07-0.29,0.94-0.29,1.01c-0.07,0.07-0.22,0.65-0.29,1.08
			c-0.36,2.16-0.43,3.31-0.43,4.46c0,0.29-0.22,1.08-0.22,1.3c0,0.22-0.07,0.36-0.22,0.72c-0.07,0.14-0.07,0.29-0.07,0.36
			c0,0.43,0.36,0.58,0.58,1.08v0.36c0,0-0.14,0.72-0.14,0.79c0,0.07,0,0.36,0.07,0.5c0.07,0.14,0.29,0.36,0.36,0.65
			c0.07,0.29,0.22,0.43,0.29,0.65c0.07,0.22,0.36,0.36,0.43,0.65c0.07,0.29,0.5,0.72,0.58,0.86l0.36,0.5l0.65,0.65l1.15,0.86
			c0,0,0.29,0,0.94,0.14c0.5,0.14,1.44,0.22,2.02,0.22c0.5,0,0.94,0,1.73-0.14s1.15-0.07,1.44-0.22c0.29-0.14,1.01-0.36,1.37-0.58
			c0.36-0.22,0.79-0.86,1.37-1.15c0.58-0.29,0.79-0.43,1.01-0.79c0.22-0.36,0.14-0.14,0.58-0.65c0.43-0.5,0.58-0.79,0.72-1.08
			l0.65-1.08c0.14-0.43,0.43-0.65,0.58-0.65s0.22,0.14,0.22,0.43l-0.14,1.01c0,0-0.14,0.14-0.36,0.65c-0.22,0.5-0.22,0.43-0.5,0.79
			c-0.29,0.36-0.65,0.58-0.79,0.86s-0.14,0.43-0.65,0.72s-0.72,0.43-1.08,0.72c-0.36,0.29-0.72,0.65-1.22,0.86
			c-0.5,0.22-0.43,0.29-1.22,0.5c-0.79,0.22-1.15,0.36-1.58,0.43c-0.36,0.07-1.08,0.22-1.87,0.22c-0.07,0-0.29,0-2.59-0.14
			c0,0-0.86-0.29-1.58-0.5c-0.72-0.22-0.79-0.22-1.51-0.58c-0.72-0.36-0.86-0.14-1.37-0.65c-0.5-0.5-0.94-0.86-1.15-1.15
			c-0.22-0.29-0.65-0.43-0.86-0.79c-0.36-0.58-0.58-1.15-1.37-1.51c0-0.79-0.58-1.15-0.65-1.8c-0.07-0.65-0.29-1.15-0.43-1.66
			c-0.22-0.65-0.36-1.58-0.36-2.52s0.07-2.16,0.14-2.38c0.07-0.22,0.14-0.94,0.22-1.44c0.07-0.5,0.07-1.15,0.14-1.51
			C77.47,50.33,78.05,46.59,78.62,45z M75.89,36.44c0,0.22,0.22,0.5,0.22,0.58c0.07-0.43,0.07-0.94,0.07-2.52
			c0-0.07,0.22-0.72,0.22-0.79c0-0.29,0-1.73-0.14-2.02c0,0-0.07,0-0.22,0.36c-0.22,0.5-0.22,1.08-0.22,1.66s0,1.22,0.07,1.8V36.44z
			"/>
		<path class="st0" d="M90.86,55.66c-1.94-2.52-2.59-4.54-2.59-8.64c0-1.01,0.07-2.02,0.22-3.1c0.07-0.36,0.22-0.65,0.22-1.01
			c0-0.22,0.22-1.44,0.29-1.87c0.14-0.86,0.43-1.66,0.86-2.16c0.36-0.58,1.3-0.94,2.23-0.94c0.36,0,0.58,0,0.79,0.14
			c0.22,0.14,0.79,0.79,0.86,0.94c0,0-0.07,0.79-0.07,1.08c-0.14,0.43-0.22,0.94-0.29,1.37c-0.07,0.58-0.14,1.08-0.36,1.66
			c0,0.07-0.07,0.22-0.07,0.29c-0.07,0.14-0.07,0.29-0.07,0.29c0,0.07-0.07,0.29-0.07,0.43c-0.07,0.22-0.07,0.36-0.07,0.36
			c0,0.07-0.07,0.29-0.14,0.43c-0.07,0.14-0.14,0.36-0.14,0.36v1.66c0,0.07-0.07,0.29-0.07,0.5c-0.07,0.22-0.07,0.5-0.07,0.5
			c-0.07,0.29-0.07,0.58-0.07,1.08v1.44c0,1.3,0,4.75,1.8,4.75c0.58,0,1.15-0.29,1.8-0.79l0.79-0.72c0.5-0.29,0.72-0.72,0.94-0.86
			c0-0.07,0.14-0.36,0.14-0.43c0.07-0.36,0.36-0.65,0.43-0.86c0-0.07,0.36-0.79,0.36-0.86c0.5-0.94,1.08-2.3,1.58-3.31
			c0.07,0,0.29-0.07,0.43-0.07s0.29,0.22,0.29,0.36c-0.14,0.72-0.72,1.87-0.86,2.16c-1.15,2.02-1.58,3.1-3.02,4.75
			c-0.07,0.07-0.29,0.29-0.29,0.29c-0.43,0.29-1.51,1.3-1.73,1.37c-0.36,0.14-1.22,0.43-1.73,0.43
			C92.59,56.67,91.3,56.17,90.86,55.66z M91.87,34.35l-0.58-1.66v-0.5c0.22-1.08,1.08-1.22,1.87-1.22c0.14,0.07,0.94,0.43,1.58,0.58
			c0.14,0.07,0.29,0.58,0.29,0.72c0,1.58-0.86,2.45-2.23,2.45C92.3,34.71,91.87,34.35,91.87,34.35z"/>
		<path class="st0" d="M117,59.19c-0.22,0-0.43,0.07-0.58,0.43c-0.5,1.22-0.79,2.38-1.44,3.31c-0.58,0.86-0.5,0.65-1.01,1.08
			c-0.79,0.72-1.51,0.72-2.23,0.72c-1.8,0-2.88-1.73-3.82-3.67c-0.43-0.79-0.94-1.66-1.15-2.45c-0.58-1.58-1.01-3.53-1.37-5.18
			c-0.5-2.23-0.86-3.89-1.15-6.48l-0.07-1.51c0-0.22-0.07-0.86-0.07-1.08l0.22-0.36c0-0.07,0.29-0.58,0.29-0.65
			c0.58-1.15,1.08-1.87,1.66-3.1c0-0.14,0.14-0.5,0.14-0.58c0.36-1.37,1.3-2.45,1.73-3.82c0-0.07,0.07-0.65,0.07-0.72
			c0-0.07,0.58-0.72,0.58-0.86c0.5-0.86,1.58-4.39,2.23-5.9c0.39-1.04,0.43-2.37,0.91-3.31c-0.28-0.17-0.55-0.37-0.8-0.59
			c-0.07,0.27-0.26,0.82-0.26,0.94l-0.22,0.29l-0.58,1.94c0,0.07-0.07,0.14-0.07,0.22c-0.72,1.87-1.94,4.82-2.66,6.91
			c-0.29,0.5-0.29,1.37-0.65,1.87c-0.36,1.22-1.22,2.3-1.3,2.59c-0.14,0.43-0.58,1.3-0.79,1.66c-0.36,0.79-0.22,0.72-0.58,1.44
			l0.07-1.01c0-0.14-0.14-1.15-0.14-1.3c0.14-5.4,0.72-8.78,1.01-12.17l0.5-2.95c0.22-1.15,0.14-1.94,0.36-2.95
			c0.14-0.65,0.5-1.22,0.65-1.87c0.14-0.79,0.07-1.37,0.22-2.16c0.43-1.94,1.08-4.03,1.73-5.9c0-0.07,0.29-0.86,0.36-1.01l2.09-4.75
			c0.58-1.3,1.15-2.52,2.09-3.6c0.43-0.5,1.87-1.8,2.45-1.8c1.01,0,1.22,1.08,1.22,2.23c0,0.65-0.14,1.22-0.22,1.58v0.43
			c-0.07,1.44-0.36,1.8-0.43,2.3l-0.14,1.3c0,0.07-0.14,0.36-0.14,0.43l-0.22,1.8c-0.07,0.14-0.14,0.22-0.14,0.29
			c0,0.72-0.43,0.86-0.43,1.08c-0.31,0.55-0.36,1.3-0.45,1.82c0.54-0.51,1.07-1.01,1.6-1.52c0.07-0.34,0.15-0.67,0.22-1.02
			c0.07-0.86,0.58-1.51,0.65-2.3c0.43-1.87,0.72-3.67,0.79-5.62c0-1.66-0.22-3.67-2.23-3.67c-1.37,0-2.88,1.08-3.74,1.8
			c-0.94,0.79-1.8,2.02-2.74,2.88l-0.86,1.73c-0.65,0.94-1.08,1.66-1.51,2.59l-2.3,4.9c-0.29,0.58-0.36,1.15-0.5,1.73l-1.58,4.75
			c-0.58,1.73-0.79,3.6-1.15,5.33c-0.22,1.22-0.65,2.52-0.79,3.74c-0.36,2.23-0.29,4.32-0.43,6.55c0,0.22-0.14,1.66-0.14,1.87v4.18
			c0,1.8,0,3.89,0.14,5.69l0.14,1.44c0,0.29,1.58,6.77,2.23,8.28c0.86,2.23,2.09,4.9,4.03,6.48c1.51,1.22,2.23,1.37,4.39,1.8
			c0.29,0,0.72,0.07,1.3,0.07c0.58,0,1.37-0.29,1.73-0.5c1.94-1.15,2.16-2.23,3.02-4.1c0.29-0.58,0.65-1.37,0.65-1.87
			C117.36,59.26,117.14,59.19,117,59.19z"/>
		<path class="st0" d="M133.34,46.88c-0.29,0-0.43,0.22-0.5,0.36l-1.37,2.88c-0.29,0.5-0.72,1.58-1.08,2.3l-0.22,0.43
			c-0.58,1.08-1.87,3.1-3.82,4.82l0.58-4.82l-0.14-1.94c0,0-0.07-0.14-0.07-0.29c-0.22-0.36-0.22-0.72-0.22-1.15
			c0-0.72,0.14-1.51,0.14-2.16c-0.14-0.29-0.22-0.72-0.22-1.08c0-0.22,0.07-0.36,0.07-0.5v-0.43c0-0.07-0.07-0.36-0.07-0.43v-1.15
			c0-1.58-0.5-2.59-2.38-2.88c-0.07,0-1.08,0.07-1.15,0.58c-0.5,0.72-0.58,1.66-0.72,2.45l-0.5,1.22c0,0.07-0.14,0.14-0.14,0.22
			c0-0.07-0.43,0.86-0.65,1.44l-0.22,0.5c0,0.14,0.07,0.29,0.07,0.43c-0.07,0.14-0.36,0.43-0.5,0.58l-0.94,2.09
			c0,0.07-0.07,0.72-0.14,0.79c0,0.07-0.36,0.29-0.43,0.29l-0.29,0.36c0,0.07-0.07,0.29-0.14,0.43l-0.5,0.5
			c-0.07,0.14-0.14,0.22-0.14,0.29c0,0.07-0.07,0.14-0.07,0.22l-0.29,0.14c0,0.07-0.07,0.22-0.14,0.36c0,0.07-0.14,0.22-0.14,0.29
			c-1.66,1.94-2.09,2.88-2.52,2.88c-0.14,0-0.36-0.22-0.43-0.43c-0.07-0.14-0.22-1.44-0.22-1.66c0-1.01,0.07-1.87,0.22-1.94
			c0.22-0.36,0.29-1.22,0.29-1.66c0.07-0.22,0.22-0.58,0.22-0.72c0.58-0.94,0.5-2.23,0.79-3.17l0.14-0.29
			c0-0.07,0.14-0.29,0.14-0.36c0.07-0.43,0.14-1.44,0.14-1.66c0-2.02-1.87-2.3-3.6-2.3c-0.94,0-2.38,0.36-2.95,0.79
			c0,0.14,0,0.36,0.29,0.36c0.36-0.07,0.65-0.07,0.86-0.07c0.36,0,0.5,0.22,0.5,0.72c0,0.36-0.22,1.66-0.36,2.74
			c-0.14,0.5-0.22,1.37-0.29,1.44c0,0.29-0.14,0.72-0.14,0.94c-0.14,0.79-0.29,1.8-0.29,2.66c0,0.94,0.14,1.8,0.36,2.74
			c0.14,0.43,0.65,1.3,0.94,1.66c0.72,0.72,1.87,1.3,3.1,1.3s2.09-1.22,2.81-2.3c0.22-0.22,0.65-0.86,0.65-0.86
			c1.08-1.22,1.87-3.02,2.66-4.54l0.29-0.65c0.07,0,0.22-0.36,0.29-0.58l0.22-0.29l0.14-0.5c0-0.07,0.22-0.5,0.29-0.58l0.72-1.58
			c0.14,0.5,0.22,1.58,0.22,2.38c0,0.5,0,1.08,0.07,1.3c0.07,0.43,0.07,1.08,0.07,1.44c0,1.01-0.14,3.1-0.22,4.9
			c-0.07,1.22-0.14,2.3-0.14,2.59c0,0,0,1.3-0.36,3.17c-0.29,0.72-1.15,1.3-1.66,1.8l-1.01,1.01c0,0.07-0.07,0.22-0.07,0.22
			l-0.22,0.29l-0.29,0.07l-1.08,1.15c-0.65,0.65-1.22,1.15-1.66,1.8l-0.94,1.3l-0.36,0.29c-0.29,0.36-0.58,0.72-0.86,0.94
			l-0.72,0.65l-1.3,1.37l-0.14,0.29c0-0.07-0.29,0.36-0.5,0.58c-0.07,0.07-0.36,0.36-0.43,0.5l-0.86,0.94l-0.36,0.86l-0.5,0.5
			c0,0-0.07,0.22-0.14,0.36l-0.14,0.29l-0.43,0.43l-0.65,1.08c0,0.07-0.07,0.22-0.07,0.29c-0.07,0.22-0.14,0.43-0.22,0.5l-0.36,0.29
			c0,0-0.07,0.22-0.14,0.29c0,0.07-0.07,0.22-0.07,0.29l-0.36,0.43l-0.33,0.63c0.15,0.37,0.29,0.74,0.43,1.11
			c0.16-0.33,0.33-0.66,0.33-0.66c0.14-0.29,0.5-0.65,0.65-0.79l0.22-0.43c0.07-0.14,0.22-0.29,0.22-0.29s0.07-0.22,0.14-0.36
			c0.07-0.22,0.22-0.43,0.29-0.43c0-0.07,0.36-0.65,0.43-0.72c0,0,0.22-0.36,0.29-0.5l0.22-0.36c0.14-0.22,0.29-0.36,0.5-0.5
			l0.29-0.29c0.14-0.14,0.29-0.58,0.43-0.79l0.5-0.58c0.07-0.07,0.22-0.29,0.22-0.36l4.9-5.47l0.58-0.5c0,0,0.14-0.5,0.43-0.72
			c0.07-0.07,0.22-0.14,0.22-0.22l1.3-1.44l1.73-1.58c0.36-0.43,0.79-0.79,1.3-1.3c-0.29,3.38-0.65,5.62-1.01,7.42l-0.43,1.22
			l-0.43,1.58c0,0.07-0.14,0.29-0.14,0.36c-0.07,0.07-0.22,0.36-0.22,0.43c-0.07,0.22-0.14,0.65-0.29,0.86
			c-0.14,0.29-0.22,0.58-0.29,0.86c0,0.14-0.07,0.29-0.07,0.43L117,80.79l-1.01,1.66c-0.07,0.14-0.43,0.86-0.43,0.79
			c0-0.07-0.07,0-0.22,0.29l-0.72,1.01l-0.36,0.79c-0.14,0.07-0.22,0.22-0.22,0.29l-0.36,0.43c-0.22,0.22-0.36,0.43-0.58,0.94
			c0,0.07-0.07,0.14-0.07,0.22l-3.31,3.02c-0.29,0.36-0.29,0.43-0.86,0.65l-0.55,0.33c0.4,0.13,0.8,0.27,1.2,0.41
			c0.48-0.18,0.46-0.27,0.86-0.67c0.29-0.22,0.72-0.58,1.3-0.86c0.65-0.43,2.52-2.02,2.88-2.38c2.02-2.02,3.74-4.1,4.97-7.06
			l1.87-2.81l0.29-1.08l0.65-1.01c0-0.07,0.14-0.58,0.36-0.79c0-0.07,0-0.43,0.07-0.5c0-0.07,0.14-0.36,0.14-0.43
			c0.5-1.3,1.01-2.59,1.37-3.96l0.94-3.02v-0.72l0.14-0.29c0.07-0.07,0.14-0.29,0.14-0.29v-0.43c0-0.22,0.07-0.43,0.07-0.65
			c0.07,0.14,0.14-0.79,0.22-1.08l0.14-0.5c0-0.14,0-0.65-0.07-0.86l0.29-2.52c1.22-1.22,2.95-3.46,3.82-4.68
			c0.65-1.08,1.3-2.16,1.73-3.17l1.08-2.23c0.29-0.65,0.72-1.66,0.94-2.38C133.7,47.16,133.49,46.88,133.34,46.88z"/>
		<path class="st0" d="M148.03,55.44c-0.94-0.94-1.15-3.24-1.22-4.39v-3.74c0-0.22,0.07-1.01,0.07-1.73
			c0.07-0.79,0.07-1.66,0.07-2.02c0-0.14,0-0.58,0.14-0.94c0-0.14,0.07-0.43,0.07-0.5c0-0.07,0.14-0.5,0.29-0.79
			c0.07-0.14,0.07-0.29,0.07-0.36c0-0.07,0-0.36,0.07-0.58c0-0.14,0.14-0.43,0.14-0.5c0-0.14,0-0.65,0.07-0.94
			c0-0.14,0.07-0.36,0.07-0.43c0-0.14,0.07-0.22,0.07-0.36c0.07-0.36,0.14-0.72,0.14-1.01c0-0.22-0.07-0.79-0.29-0.79
			c-0.29,0-1.44,1.44-1.44,1.44c-0.07,0.36-0.29,0.58-0.5,0.79c-0.22,0.22-0.36,0.36-0.43,0.5l-0.14,0.22
			c-0.14,0.22-0.22,0.5-0.36,0.65l-0.43,0.58c-0.58,0.86-1.22,1.73-1.51,2.3c-0.14,0.29-0.29,0.58-0.36,0.86l-0.29,0.79
			c-0.07,0.07-0.36,0.58-0.36,0.65c0,0.07-0.07,0.14-0.07,0.29c-0.07,0.14-0.07,0.29-0.07,0.29l-0.58,1.15
			c-0.07,0.07-0.22,0.5-0.22,0.58c0-0.07-0.22,0.5-0.29,0.72c-0.14,0.36-0.22,0.72-0.29,1.08c0,0.14-0.14,0.43-0.14,0.58l-0.65,2.3
			c-0.43,1.01-0.5,1.3-0.5,1.44l-0.72,1.94c-0.14,0.29-0.79,0.29-0.94,0.29h-0.79c0,0-0.14-0.29-0.14-0.36
			c-0.58-1.44-1.01-3.02-1.01-4.61v-0.72c0-0.07,0-0.36,0.07-0.5c0-0.29,0.14-0.58,0.14-0.86c0-0.14,0.07-0.43,0.14-0.72
			c0-0.65-0.22-1.37-0.22-1.37c-0.14-0.86-0.29-1.22-0.43-1.22c-0.29,0-0.5,0.29-0.79,0.86c-0.07,0-0.29,0.14-0.29,0.29l-0.07,0.5
			l-0.43,1.08c-0.14,0.14-0.36,0.29-0.5,0.29s-0.29-0.14-0.29-0.36v-0.29l0.43-0.86c0,0,0.14-0.22,0.14-0.43
			c0.79-1.44,1.58-2.38,2.45-2.38c0.72,0,1.37,0.43,2.02,0.86l0.43,0.43c0.43,0.72,0.72,1.44,0.79,3.1c0.07,0,0.22,0.07,0.36,0.07
			s0.36-0.58,0.43-0.79c0.22-0.36,0.58-1.22,0.65-1.66l0.94-2.16l1.3-2.59l0.58-0.65l0.79-1.51l0.22-0.22l0.86-1.3
			c0.43-0.72,0.94-1.37,1.58-1.87l0.5-0.29c0-0.07,0.14-0.14,0.14-0.22c0.14-0.29,0.58-0.5,0.58-0.5h0.94
			c0.79,0.07,1.22,0.72,1.58,1.15c0.29,0.43,0.65,1.15,0.79,1.73c0.22,0.79,0.43,1.66,0.43,2.52v0.36c0,0.14-0.07,0.58-0.07,1.08
			c-0.07,0.5-0.07,1.08-0.07,1.15v2.66c0,0.07-0.07,0.22-0.07,0.43c-0.07,0.22-0.07,0.43-0.07,0.43c-0.14,1.8-0.22,3.53-0.22,5.33
			c0,0.79,0,1.8,0.07,2.59c0,0.07,0.14,0.36,0.22,0.43c0.14,0.58,0.22,1.15,0.72,1.15c0.65,0,1.44-0.43,2.74-2.09
			c0.5-0.29,0.72-0.79,0.94-0.94c0-0.07,0.14-0.36,0.14-0.43c0.14-0.29,0.43-0.65,0.5-0.86c0-0.07,0.36-0.79,0.36-0.86
			c0.5-0.94,1.08-2.3,1.58-3.31c0.07,0,0.29-0.07,0.43-0.07c0.14,0,0.29,0.22,0.29,0.36c-0.14,0.72-0.72,1.87-0.86,2.16
			c-1.15,2.02-1.66,3.46-3.1,5.11c-1.01,1.3-2.09,2.52-3.67,2.52C150.12,57.46,148.9,56.6,148.03,55.44z"/>
	</g>
</g>
</svg>
